<?xml version="1.0" encoding="UTF-8" standalone="no"?>
<svg
   id="svg59"
   width="500mm"
   height="325mm"
   version="1.1"
   viewBox="0 0 833.33 541.67"
   xmlns:inkscape="http://www.inkscape.org/namespaces/inkscape"
   xmlns:sodipodi="http://sodipodi.sourceforge.net/DTD/sodipodi-0.dtd"
   xmlns:xlink="http://www.w3.org/1999/xlink"
   xmlns="http://www.w3.org/2000/svg"
   xmlns:svg="http://www.w3.org/2000/svg">
  <sodipodi:namedview
     id="namedview1"
     pagecolor="#ffffff"
     bordercolor="#000000"
     borderopacity="0.25"
     inkscape:showpageshadow="2"
     inkscape:pageopacity="0.0"
     inkscape:pagecheckerboard="0"
     inkscape:deskcolor="#d1d1d1"
     inkscape:document-units="mm"
     inkscape:zoom="0.1767767"
     inkscape:cx="-989.94949"
     inkscape:cy="149.90664"
     inkscape:window-width="1920"
     inkscape:window-height="1009"
     inkscape:window-x="-8"
     inkscape:window-y="-8"
     inkscape:window-maximized="1"
     inkscape:current-layer="svg59" />
  <defs
     id="defs10">
    <linearGradient
       id="linearGradient13"
       x1="682.26"
       x2="683.24"
       y1="325.47"
       y2="359.89"
       gradientTransform="translate(-16.384 -27.956)"
       gradientUnits="userSpaceOnUse">
      <stop
         id="stop1"
         stop-color="#4cff3b"
         offset="0" />
      <stop
         id="stop2"
         stop-color="#4cb247"
         offset="1" />
    </linearGradient>
    <symbol
       id="sjjb-amenity.svg:toilets_men"
       viewBox="0 0 508.57813 507.57813">
      <title
         id="title2">Toilets (men)</title>
      <path
         id="path2"
         d="m108.46 0c-11.204.000494-20.878 3.9465-29.02 11.84-8.143 7.8943-12.213 17.692-12.213 29.393-.00054 11.204 4.0698 20.881 12.213 29.031 8.1419 8.1507 17.815 12.225 29.02 12.225 11.203.00041 20.88-4.0739 29.031-12.225 8.1496-8.1498 12.226-17.827 12.227-29.031-.00064-11.7-4.0769-21.498-12.227-29.393-8.1509-7.8934-17.828-11.839-29.031-11.84zm-54.984 90.879c-14.763.00037-27.365 5.2222-37.807 15.664-10.443 10.443-15.665 23.302-15.664 38.576v126.78c-.00048097 12.229 5.6025 18.344 16.807 18.344 10.69.00021 16.035-6.1143 16.035-18.344v-123.72h19.859v336.06c-.000533 15.275 7.6366 22.912 22.912 22.912 15.274-2e-5 22.912-7.6372 22.912-22.912v-194.77h19.859v194.77c-6e-4 15.275 7.6366 22.912 22.912 22.912 15.787-2e-5 23.681-7.6372 23.682-22.912v-336.06h19.09v123.72c-.00066 12.727 5.3455 19.09 16.037 19.09 10.706.00018 16.058-6.3631 16.059-19.09v-126.03c-.00069-14.762-4.9638-27.617-14.893-38.564-9.9302-10.947-22.789-16.422-38.576-16.422h-109.22zm396.12 286.07c-20.321.00013-36.037 5.6115-47.145 16.834-11.108 11.223-16.66 27.282-16.66 48.178-1e-5 15.672 3.1562 28.53 9.4707 38.576s13.821 17.063 22.518 21.053c8.6968 3.9896 19.905 5.9844 33.625 5.9844 11.309 0 20.622-1.6361 27.941-4.9082s13.448-8.1234 18.385-14.553c4.9367-6.4293 8.5533-14.437 10.85-24.023l-34.186-10.332c-1.7222 7.9793-4.4913 14.063-8.3086 18.254-3.8175 4.1906-9.4574 6.2871-16.92 6.2871-7.6923 3e-5-13.662-2.5978-17.91-7.793-4.248-5.1951-6.3731-14.796-6.373-28.803-5e-5-11.309 1.7787-19.605 5.3379-24.887 4.7071-7.1181 11.482-10.676 20.322-10.676 3.9035 1e-4 7.4344.80292 10.592 2.4102 3.1572 1.6074 5.8264 3.9037 8.0078 6.8887 1.3202 1.7796 2.5835 4.5934 3.7891 8.4395l34.441-7.6641c-4.4203-13.318-11.179-23.192-20.277-29.621-9.0988-6.4292-21.599-9.6444-37.5-9.6445zm-248.59 2.1523 28.07 126.23h38.232l22.043-79.477 22.131 79.477h38.23l27.812-126.23h-36.854l-13.346 70.523-19.547-70.523h-36.939l-19.461 70.523-13.348-70.523z" />
    </symbol>
    <symbol
       id="sjjb-amenity.svg:toilets_women"
       viewBox="0 0 531.43164 526.8457">
      <title
         id="title3">Toilets (women)</title>
      <path
         id="path3"
         d="m133.9 0c-11.622.000512-21.659 4.2242-30.113 12.67-8.4545 8.4468-12.682 18.745-12.682 30.898-.00013 11.622 4.2272 21.658 12.682 30.104 8.4542 8.4467 18.491 12.668 30.113 12.668 12.137.00041 22.434-4.2212 30.889-12.668 8.4541-8.4458 12.681-18.481 12.682-30.104-.00024-12.153-4.2275-22.452-12.682-30.898-8.4546-8.4458-18.751-12.669-30.889-12.67zm-44.367 95.068c-13.218.00042-25.104 4.7559-35.662 14.266-7.9306 7.3828-13.211 15.571-15.838 24.564l-36.461 121.21c-1.0478 2.6437-1.5704 5.0215-1.5703 7.1328-6.6994e-5 12.154 6.0675 18.231 18.205 18.23 8.4623.00023 14.017-4.7553 16.66-14.266l33.27-110.93h18.205l-54.666 197.27h53.094v153.7c-.00013 13.733 6.6012 20.602 19.803 20.602 13.201-3e-5 19.803-6.8683 19.803-20.602v-154.47h19.826v155.27c-.00019 13.201 6.5992 19.803 19.801 19.803 13.201-3e-5 19.802-6.6014 19.803-19.803v-154.5h53.07l-55.439-197.27h19.004l33.27 110.93c2.6432 9.5104 8.1882 14.266 16.635 14.266 12.153.00023 18.23-6.0766 18.23-18.23-.00033-2.6432-.52487-5.021-1.5723-7.1328l-36.461-121.21c-2.6438-8.462-8.7114-16.65-18.205-24.564-11.622-9.5097-24.3-14.265-38.033-14.266zm382.92 293.62c-20.321.00013-36.037 5.6114-47.145 16.834-11.108 11.223-16.66 27.28-16.66 48.176 0 15.672 3.1562 28.53 9.4707 38.576s13.821 17.065 22.518 21.055c8.6968 3.9896 19.905 5.9844 33.625 5.9844 11.309 0 20.622-1.6361 27.941-4.9082s13.448-8.1234 18.385-14.553c4.9367-6.4293 8.5533-14.437 10.85-24.023l-34.186-10.334c-1.7222 7.9793-4.4913 14.065-8.3086 18.256-3.8175 4.1906-9.4574 6.2852-16.92 6.2852-7.6923 2e-5-13.662-2.5978-17.91-7.793-4.248-5.1951-6.3731-14.796-6.373-28.803-5e-5-11.309 1.7787-19.603 5.3379-24.885 4.7071-7.1181 11.482-10.678 20.322-10.678 3.9034 1e-4 7.4344.80488 10.592 2.4121 3.1572 1.6074 5.8264 3.9037 8.0078 6.8887 1.3202 1.7796 2.5835 4.5915 3.7891 8.4375l34.441-7.6641c-4.4203-13.318-11.179-23.192-20.277-29.621-9.0988-6.4292-21.599-9.6424-37.5-9.6426zm-248.59 2.1523 28.07 126.23h38.232l22.043-79.477 22.131 79.477h38.23l27.812-126.23h-36.854l-13.346 70.521-19.547-70.521h-36.939l-19.461 70.521-13.348-70.521z" />
    </symbol>
    <symbol
       id="sjjb-amenity.svg:symbol95"
       viewBox="0 0 576.44501 577.45154">
      <title
         id="title4">Wheelchair-accessible toilets</title>
      <path
         id="path4"
         d="m64.571.063556c-41.335 0-64.571 21.371-64.571 65.036v450.12c0 40.844 20.895 62.229 62.192 62.229h452.02c41.307 0 62.229-20.315 62.229-62.229v-450.12c0-42.601-20.922-65.036-63.521-65.036-.004 0-448.5-.143-448.35 0z" />
      <path
         id="path5"
         d="m495.28 25.317c-20.321.000128-36.035 5.6115-47.143 16.834-11.108 11.223-16.662 27.282-16.662 48.178-1e-5 15.672 3.1581 28.53 9.4727 38.576 6.3145 10.046 13.819 17.063 22.516 21.053 8.6968 3.9896 19.905 5.9844 33.625 5.9844 11.309 0 20.624-1.6361 27.943-4.9082s13.446-8.1214 18.383-14.551c4.9367-6.4293 8.5533-14.439 10.85-24.025l-34.184-10.332c-1.7222 7.9793-4.4932 14.063-8.3106 18.254-3.8175 4.1906-9.4574 6.2871-16.92 6.2871-7.6923 3e-5-13.662-2.5978-17.91-7.793-4.248-5.1951-6.3711-14.796-6.3711-28.803-5e-5-11.309 1.7787-19.603 5.3379-24.885 4.7071-7.1181 11.48-10.678 20.32-10.678 3.9034 1e-4 7.4344.80292 10.592 2.4102 3.1572 1.6074 5.8263 3.9037 8.0078 6.8887 1.3202 1.7796 2.5835 4.5934 3.7891 8.4395l34.443-7.6641c-4.4203-13.318-11.181-23.192-20.279-29.621-9.0988-6.4292-21.599-9.6444-37.5-9.6445zm-248.59 2.1543 28.07 126.23h38.23l22.045-79.477 22.129 79.477h38.232l27.812-126.23h-36.854l-13.348 70.521-19.547-70.521h-36.939l-19.461 70.521-13.346-70.521zm-57.975 50.971c-4.4299.09333-8.8728.93429-13.16 2.6426-27.716 7.8657-38.154 44.485-18.227 64.736.58941 67.315.8389 134.63 1.8262 201.95 32.025.004 142.78-3.8774 163.92.77539 21.279 42.334 72.508 146.46 78.223 155.41 22.666-7.5017 58.238-24.464 80.777-32.312 1.1636.96552.89391-31.458-9.6172-30.58-9.5931.59366-27.915 14.389-53.152 17.34-24.026-47.042-46.925-95.01-70.725-142.32-41.406-.0318-109.16.082-150.67-.11133.0554-1.5744-6.374-16.907 1.7715-35.115h110.29v-35.115c-37.53-.49657-75.342 1.6411-112.65-1.2598-1.6801-26.595-1.0707-53.321-.40625-79.953 9.2498-12.574 36.665-18.124 35.463-40.928 3.7686-24.357-19.743-45.662-43.664-45.158zm-67.125 170.47c-50.39 24.212-88.447 74.112-91.266 129.25-5.8154 48.632 16.003 97.819 53.77 129.66 26.41 22.946 61.029 37.255 110.53 42.582 55.032 3.6747 109.5-22.226 143.49-63.523 20.111-13.506.24726-44.12-9.0723-51.35-22.291 35.193-55.842 66.11-98.191 76.404-56.484 15.369-119.81-16.138-144.83-66.361-23.657-44.201-15.457-103.36 21.969-138.05 5.3028-7.3066 19.784-10.21 17.652-20.779-1.4308-12.183 3.9501-30.67-4.0469-37.834z"
         fill="#fff" />
    </symbol>
    <symbol
       id="AigaSymbols.svg:TicketPurchase_Inv">
      <title
         id="title5">Ticket Purchase</title>
      <rect
         id="rect5"
         x=".5"
         y=".5"
         width="71"
         height="71"
         ry="6"
         stroke="#fff" />
      <g
         id="g8"
         fill="#fff">
        <circle
           id="circle5"
           cx="21"
           cy="15"
           r="4.75" />
        <path
           id="path6"
           d="m12.75 36 2.5-9h1l-2.5 9h14.5l-2.5-9h1l1.5 4.5c.7 2 2.25 2 3.5.5l5-6a1.863 1.863 0 00-2.85-2.4l-3 3.65-.65-2.25c-.75-2.5-3.25-4.5-6.25-4.5h-6c-3 0-5.5 2-6.25 4.5l-3 11z" />
        <circle
           id="circle6"
           cx="54"
           cy="15"
           r="4.75" />
        <path
           id="path7"
           d="m60 37h3v-13a3.5 3.5 0 00-3.5-3.5h-11a4.5 4.5 0 00-3.5 1.5l-9 11a2.15 2.15 0 003.25 2.75l8.75-10.25v38a2.75 2.75 0 005.5 0v-21.5h1v21.5a2.75 2.75 0 005.5 0z" />
        <rect
           id="rect7"
           x="35"
           y="14.5"
           width="4"
           height="9.5" />
        <rect
           id="rect8"
           x="6"
           y="37"
           width="60"
           height="6" />
      </g>
    </symbol>
    <symbol
       id="AigaSymbols.svg:RightArrow">
      <title
         id="title8">Right Arrow</title>
      <path
         id="path8"
         d="m63 36-22 22h-15l16-16h-32v-12h32l-16-16h15z" />
    </symbol>
    <symbol
       id="sjjb-tourist.svg:symbol84"
       viewBox="0 0 576.44501 577.45154">
      <title
         id="title9">Information</title>
      <path
         id="path9"
         d="m64.571.063556c-41.335 0-64.571 21.371-64.571 65.036v450.12c0 40.844 20.894 62.229 62.192 62.229h452.02c41.307 0 62.229-20.316 62.229-62.229v-450.12c0-42.601-20.922-65.036-63.522-65.036-.003 0-448.49-.143-448.35 0z" />
      <path
         id="path10"
         d="m256.02 121.67c0-10.861 3.5198-19.761 10.56-26.701 7.0397-6.9387 16.091-10.408 27.153-10.409 11.867.000386 21.722 3.6712 29.567 11.012 7.8442 7.3418 11.766 15.639 11.767 24.89-.00026 6.839-1.559 13.678-4.6765 20.516-3.1176 6.839-8.0455 12.32-14.783 16.443-6.7382 4.1235-13.627 6.1852-20.667 6.1849-9.6546.00025-18.555-4.123-26.701-12.37-8.1461-8.2462-12.219-18.102-12.219-29.567zm-42.238 359.93-.60373-19.611 34.092-4.5255c5.0283-1.4079 8.4979-3.4696 10.409-6.1849 1.9107-2.7152 2.8661-8.7996 2.8661-18.253v-3.3187c0-2.4135.15061-6.7883.45311-13.124.30122-6.3357.45183-11.917.45183-16.744 0-3.8215-.30122-11.163-.90494-22.024l.30122-15.085-.30122-14.18.60372-49.178c-.00012-6.235-.60372-12.671-1.8103-19.309-2.2126-3.0168-6.2352-5.6315-12.068-7.8442-5.833-2.2123-15.99-3.8214-30.472-4.8272v-16.895c20.717-1.2062 38.92-5.531 54.608-12.973 10.66-4.827 22.225-13.375 34.696-25.645h20.214c.80454 24.941 1.2062 57.324 1.2062 97.148l-2.1119 123.09c-.00013 8.4477.40162 16.091 1.2062 22.929 6.2351 2.2126 16.392 4.425 30.472 6.6375 5.4306.80454 9.7549 1.8102 12.973 3.017l-.30122 16.594c-5.4308.20081-9.4536.30122-12.068.30122-3.0172 0-7.6433-.20081-13.878-.60373-20.516-1.0054-47.971-1.5086-82.365-1.5086-9.8556 0-19.41.35143-28.662 1.0556-9.2522.70414-15.588 1.0556-19.007 1.0556z"
         fill="#fff" />
    </symbol>
  </defs>
  <rect
     id="corridor"
     x="621.97"
     y="136.43"
     width="80.372"
     height="159.24"
     fill="#fff"
     stroke="#000"
     stroke-width="1.023" />
  <rect
     id="hall1"
     x="224.10674"
     y="170.99966"
     width="397.63263"
     height="140.48163"
     fill="#ffffff"
     stroke="#000000"
     stroke-width="1.66741" />
  <rect
     id="rect11"
     x="623.29"
     y="99.162"
     width="39.433"
     height="4.7844"
     fill="#fff"
     stroke="#000"
     stroke-linecap="square"
     stroke-linejoin="bevel"
     style="paint-order:stroke fill markers" />
  <rect
     id="rect12"
     x="623.2"
     y="94.362"
     width="39.563"
     height="4.7844"
     fill="#fff"
     stroke="#000"
     stroke-linecap="square"
     stroke-linejoin="bevel"
     style="paint-order:stroke fill markers" />
  <rect
     id="rect13"
     x="623.13"
     y="89.572"
     width="39.563"
     height="4.7844"
     fill="#fff"
     stroke="#000"
     stroke-linecap="square"
     stroke-linejoin="bevel"
     style="paint-order:stroke fill markers" />
  <rect
     id="rect14"
     x="623.27"
     y="84.822"
     width="39.466"
     height="4.7519"
     fill="#fff"
     stroke="#000"
     stroke-linecap="square"
     stroke-linejoin="bevel"
     style="paint-order:stroke fill markers" />
  <rect
     id="rect15"
     x="623.2"
     y="79.882"
     width="39.563"
     height="4.7844"
     fill="#fff"
     stroke="#000"
     stroke-linecap="square"
     stroke-linejoin="bevel"
     style="paint-order:stroke fill markers" />
  <rect
     id="hall2"
     x="61.673"
     y="171.21"
     width="162.36"
     height="141.06"
     fill="#fff"
     stroke="#000"
     stroke-linecap="square"
     stroke-linejoin="bevel"
     stroke-width="2"
     style="paint-order:normal;stroke-width:1.66667695;stroke-dasharray:none" />
  <rect
     id="room7"
     x="61.659313"
     y="310.79837"
     width="84.12883"
     height="101.9623"
     ry="0"
     fill="#ffffff"
     stroke="#000000"
     stroke-linecap="square"
     stroke-linejoin="bevel"
     stroke-width="2.02079"
     style="stroke-linejoin:miter;paint-order:normal;stroke-width:1.66667695;stroke-dasharray:none" />
  <rect
     id="room8"
     x="145.90068"
     y="310.61673"
     width="77.64135"
     height="102.12455"
     ry="0"
     fill="#ffffff"
     stroke="#000000"
     stroke-linecap="square"
     stroke-linejoin="bevel"
     stroke-width="2.00012"
     style="fill:#ffffff;stroke-width:1.66074;stroke-linejoin:miter;stroke-dasharray:none;paint-order:normal" />
  <rect
     id="room5"
     x="61.773323"
     y="72.019157"
     width="84.331818"
     height="99.22934"
     fill="#ffffff"
     stroke="#000000"
     stroke-linecap="square"
     stroke-linejoin="bevel"
     stroke-width="2.005"
     style="stroke-width:1.67033;stroke-linejoin:miter;stroke-dasharray:none;paint-order:normal" />
  <rect
     id="room6"
     x="146.24146"
     y="72.209343"
     width="77.867699"
     height="98.988983"
     fill="#ffffff"
     stroke="#000000"
     stroke-linecap="square"
     stroke-linejoin="bevel"
     stroke-width="1.99876"
     style="stroke-linejoin:miter;paint-order:normal" />
  <rect
     id="room3"
     x="223.48962"
     y="310.84689"
     width="198.31924"
     height="102.04523"
     fill="#ffffff"
     stroke="#000000"
     stroke-linecap="square"
     stroke-linejoin="bevel"
     stroke-width="1.9933"
     style="stroke-width:1.66667695;stroke-linejoin:miter;stroke-dasharray:none;paint-order:normal" />
  <rect
     id="room4"
     x="421.60995"
     y="311.02094"
     width="199.85518"
     height="102.00543"
     fill="#ffffff"
     stroke="#000000"
     stroke-linecap="square"
     stroke-width="1.2904"
     style="stroke-width:1.67053;stroke-linejoin:miter;stroke-dasharray:none;paint-order:normal" />
  <rect
     id="room1"
     x="223.90486"
     y="72.245735"
     width="199.62643"
     height="99.386467"
     fill="#ffffff"
     stroke="#000000"
     stroke-linecap="square"
     stroke-linejoin="bevel"
     stroke-width="2.0031"
     style="stroke-linejoin:miter;paint-order:normal;stroke-width:1.66667695;stroke-dasharray:none" />
  <rect
     id="room2"
     x="423.09818"
     y="72.380157"
     width="198.57167"
     height="99.167641"
     ry="0"
     fill="#ffffff"
     stroke="#000000"
     stroke-linecap="square"
     stroke-width="1.5502"
     style="stroke-width:1.66303;stroke-dasharray:none" />
  <rect
     id="stairs2"
     x="623.05"
     y="71.858"
     width="39.635"
     height="7.241"
     fill="#fff"
     stroke="#000"
     stroke-linecap="square"
     stroke-linejoin="bevel"
     stroke-width="1.6546"
     style="paint-order:stroke fill markers" />
  <rect
     id="rect34"
     transform="scale(-1)"
     x="-701.62"
     y="-110.27"
     width="38.14"
     height="4.7725"
     fill="#fff"
     stroke="#000"
     stroke-linecap="square"
     stroke-linejoin="bevel"
     stroke-width=".98224"
     style="paint-order:stroke fill markers" />
  <rect
     id="rect35"
     transform="scale(-1)"
     x="-701.55"
     y="-115.07"
     width="38.099"
     height="4.7745"
     fill="#fff"
     stroke="#000"
     stroke-linecap="square"
     stroke-linejoin="bevel"
     stroke-width=".9803"
     style="paint-order:stroke fill markers" />
  <rect
     id="rect36"
     transform="scale(-1)"
     x="-701.61"
     y="-119.84"
     width="38.099"
     height="4.7745"
     fill="#fff"
     stroke="#000"
     stroke-linecap="square"
     stroke-linejoin="bevel"
     stroke-width=".9803"
     style="paint-order:stroke fill markers" />
  <rect
     id="rect37"
     transform="scale(-1)"
     x="-701.64"
     y="-124.6"
     width="38.166"
     height="4.785"
     fill="#fff"
     stroke="#000"
     stroke-linecap="square"
     stroke-linejoin="bevel"
     stroke-width=".98682"
     style="paint-order:stroke fill markers" />
  <rect
     id="rect38"
     transform="scale(-1)"
     x="-701.71"
     y="-129.52"
     width="38.265"
     height="4.7725"
     fill="#fff"
     stroke="#000"
     stroke-linecap="square"
     stroke-linejoin="bevel"
     stroke-width=".98223"
     style="paint-order:stroke fill markers" />
  <rect
     id="rect26"
     x="663.6"
     y="129.66"
     width="37.846"
     height="7.2737"
     fill="#fff"
     stroke="#000"
     stroke-linecap="square"
     stroke-width="1.5594"
     style="paint-order:stroke fill markers" />
  <rect
     id="rect27"
     x="622.98"
     y="132.67"
     width="39.747"
     height="4.6004"
     fill="#fff"
     stroke="#000"
     stroke-linecap="square"
     style="paint-order:stroke fill markers"
     onmouseover="" />
  <rect
     id="rect28"
     x="623.09"
     y="127.85"
     width="39.563"
     height="4.7844"
     fill="#fff"
     stroke="#000"
     stroke-linecap="square"
     style="paint-order:stroke fill markers" />
  <rect
     id="rect29"
     x="623.16"
     y="123.04"
     width="39.563"
     height="4.7844"
     fill="#fff"
     stroke="#000"
     stroke-linecap="square"
     style="paint-order:stroke fill markers" />
  <rect
     id="rect30"
     x="623.2"
     y="118.31"
     width="39.563"
     height="4.7844"
     fill="#fff"
     stroke="#000"
     stroke-linecap="square"
     style="paint-order:stroke fill markers" />
  <rect
     id="rect31"
     x="623.15"
     y="113.42"
     width="39.563"
     height="4.7844"
     fill="#fff"
     stroke="#000"
     stroke-linecap="square"
     style="paint-order:stroke fill markers" />
  <rect
     id="rect32"
     x="623.18"
     y="108.68"
     width="39.563"
     height="4.7844"
     fill="#fff"
     stroke="#000"
     stroke-linecap="square"
     style="paint-order:stroke fill markers" />
  <rect
     id="rect33"
     x="623.27"
     y="103.94"
     width="39.498"
     height="4.7519"
     fill="#fff"
     stroke="#000"
     stroke-linecap="square"
     style="paint-order:stroke fill markers" />
  <rect
     id="rect40"
     transform="scale(-1)"
     x="-701.56"
     y="-76.831"
     width="38.056"
     height="5.1145"
     fill="#fff"
     stroke="#000"
     stroke-linecap="square"
     stroke-linejoin="bevel"
     stroke-width="1.0317"
     style="paint-order:stroke fill markers" />
  <rect
     id="rect41"
     transform="scale(-1)"
     x="-701.65"
     y="-81.631"
     width="38.099"
     height="4.7745"
     fill="#fff"
     stroke="#000"
     stroke-linecap="square"
     stroke-linejoin="bevel"
     stroke-width=".9803"
     style="paint-order:stroke fill markers" />
  <rect
     id="rect42"
     transform="scale(-1)"
     x="-701.58"
     y="-86.431"
     width="38.099"
     height="4.7745"
     fill="#fff"
     stroke="#000"
     stroke-linecap="square"
     stroke-linejoin="bevel"
     stroke-width=".9803"
     style="paint-order:stroke fill markers" />
  <rect
     id="rect43"
     transform="scale(-1)"
     x="-701.55"
     y="-91.151"
     width="38.099"
     height="4.7745"
     fill="#fff"
     stroke="#000"
     stroke-linecap="square"
     stroke-linejoin="bevel"
     stroke-width=".9803"
     style="paint-order:stroke fill markers" />
  <rect
     id="rect44"
     transform="scale(-1)"
     x="-701.6"
     y="-96.041"
     width="38.099"
     height="4.7745"
     fill="#fff"
     stroke="#000"
     stroke-linecap="square"
     stroke-linejoin="bevel"
     stroke-width=".9803"
     style="paint-order:stroke fill markers" />
  <rect
     id="rect45"
     transform="scale(-1)"
     x="-701.56"
     y="-100.77"
     width="38.099"
     height="4.7745"
     fill="#fff"
     stroke="#000"
     stroke-linecap="square"
     stroke-linejoin="bevel"
     stroke-width=".9803"
     style="paint-order:stroke fill markers" />
  <rect
     id="rect46"
     transform="scale(-1)"
     x="-701.64"
     y="-105.5"
     width="38.202"
     height="4.7401"
     fill="#fff"
     stroke="#000"
     stroke-linecap="square"
     stroke-linejoin="bevel"
     stroke-width=".98223"
     style="paint-order:stroke fill markers" />
  <rect
     id="toiletroom"
     x="702.58"
     y="136.91"
     width="101.06"
     height="158.74"
     fill="#fff"
     stroke="#000"
     stroke-linecap="square"
     stroke-width="1.2942"
     style="paint-order:normal" />
  <rect
     id="ticketandinforoom"
     x="702.81"
     y="295.68"
     width="100.57"
     height="118.06"
     fill="#fff"
     stroke="#000"
     stroke-linecap="square"
     stroke-width="1.6616"
     style="paint-order:normal" />
  <use
     id="ticketemblem"
     transform="matrix(.69356 0 0 .70421 710.34 303.52)"
     fill="#000000"
     stroke="#000000"
     xlink:href="#AigaSymbols.svg:TicketPurchase_Inv" />
  <use
     id="infoemblem"
     transform="matrix(.089557 0 0 .085397 747.13 359.44)"
     width="576.44501"
     height="577.45154"
     fill="#000000"
     xlink:href="#sjjb-tourist.svg:symbol84" />
  <use
     id="arrow"
     transform="matrix(.25247 0 0 .18259 686.73 378.04)"
     fill="#000000"
     stroke="#000000"
     xlink:href="#AigaSymbols.svg:RightArrow" />
  <use
     id="wcinvalid"
     transform="matrix(.1051 0 0 .097329 723.31 225.43)"
     width="576.44501"
     height="577.45154"
     fill="#000000"
     xlink:href="#sjjb-amenity.svg:symbol95" />
  <use
     id="wcmen"
     transform="matrix(.074399 0 0 .071273 712.34 158.21)"
     width="508.57812"
     height="507.57812"
     fill="#000000"
     xlink:href="#sjjb-amenity.svg:toilets_men" />
  <use
     id="wcwomen"
     transform="matrix(.077403 0 0 .072071 755.63 158.05)"
     width="531.43164"
     height="526.8457"
     fill="#000000"
     xlink:href="#sjjb-amenity.svg:toilets_women" />
  <path
     id="path48"
     d="m 458.19273,311.09818 h 134.01"
     fill="#ffffff"
     stroke="#fdfffd"
     stroke-linecap="square"
     stroke-width="3.3333"
     style="paint-order:normal" />
  <path
     id="path49"
     d="M 456.44,171.18182 H 590.45"
     fill="#ffffff"
     stroke="#fdfffd"
     stroke-linecap="square"
     stroke-width="3.3333"
     style="paint-order:normal" />
  <path
     id="path50"
     d="M 258.56,310.99637 H 392.57"
     fill="#ffffff"
     stroke="#fdfffd"
     stroke-linecap="square"
     stroke-width="3.3333"
     style="paint-order:normal" />
  <path
     id="path51"
     d="M 256.75,171.39363 H 390.76"
     fill="#ffffff"
     stroke="#fdfffd"
     stroke-linecap="square"
     stroke-width="3.3333"
     style="paint-order:normal" />
  <path
     id="path52"
     d="m79.1 171.19h54.949"
     fill="#fff"
     stroke="#fdfffd"
     stroke-linecap="square"
     stroke-width="3.3333"
     style="paint-order:normal" />
  <path
     id="path53"
     d="m158.21 170.98h54.949"
     fill="#fff"
     stroke="#fdfffd"
     stroke-linecap="square"
     stroke-width="3.3333"
     style="paint-order:normal" />
  <path
     id="path54"
     d="m 158.3,310.69805 h 54.949"
     fill="#ffffff"
     stroke="#fdfffd"
     stroke-linecap="square"
     stroke-width="3.3333"
     style="paint-order:normal" />
  <path
     id="path55"
     d="m75.955 311.17h54.949"
     fill="#fff"
     stroke="#fdfffd"
     stroke-linecap="square"
     stroke-width="3.3333"
     style="paint-order:normal" />
  <path
     id="path56"
     d="m702.05 238.08.81104 42.36"
     fill="#fff"
     stroke="#fff"
     stroke-width="5.2207"
     style="paint-order:normal" />
  <path
     id="path57"
     d="m 223.97805,206.77 c 0.26024,70.784 0.26024,70.784 0.26024,70.784"
     fill="none"
     stroke="#ffffff"
     stroke-linecap="square"
     stroke-linejoin="bevel"
     stroke-width="4"
     style="paint-order:stroke fill markers" />
  <path
     id="entrytohall"
     d="m 622.09273,202.98727 c -0.25463,50.156 -0.25463,49.794 -0.25463,49.794 v 0 h -0.25463"
     fill="none"
     stroke="#ffffff"
     stroke-dasharray="48, 48"
     stroke-linecap="square"
     stroke-width="4.6674"
     style="paint-order:stroke fill markers" />
  <path
     id="entrytoticketandinfo"
     d="m702.7 363.92.38826 40.206"
     fill="#fff"
     stroke="#25c82f"
     stroke-width="2.6393"
     style="paint-order:normal" />
  <path
     id="path58"
     d="m639.07 295.22h50.236"
     fill="none"
     stroke="#fff"
     stroke-linecap="square"
     stroke-width="4"
     style="paint-order:normal" />
  <path
     id="waytogallery"
     d="m666.21 295.58 11.738 21.009 11.74 21.008-24.064-.33943-24.064-.33668 12.326-20.67z"
     fill="url(#linearGradient13)"
     stroke="#000"
     stroke-linecap="square"
     stroke-linejoin="bevel"
     stroke-width="6e-8"
     style="mix-blend-mode:darken;paint-order:stroke fill markers" />
</svg>
